<svg data-v-423bf9ae="" xmlns="http://www.w3.org/2000/svg" viewBox="0 0 204.7481563012098 60" class="font"><!----><!----><!----><g data-v-423bf9ae="" id="e8c1e624-3535-4530-8041-a9244c7b24a6" fill="white" transform="matrix(4.90596866607666,0,0,4.90596866607666,-1.645956039428711,0.04906120151281357)"><path d="M3.72 3.12L3.72 3.12L3.72 3.12Q4.19 3.12 4.72 3.27L4.72 3.27L4.72 3.27Q5.25 3.42 5.71 3.75L5.71 3.75L5.71 3.75Q6.17 4.07 6.47 4.59L6.47 4.59L6.47 4.59Q6.76 5.11 6.75 5.85L6.75 5.85L6.75 10.50L5.38 10.50L5.38 10.50Q5.38 10.50 5.33 10.33L5.33 10.33L5.33 10.33Q5.29 10.16 5.24 9.95L5.24 9.95L5.24 9.95Q5.19 9.74 5.15 9.58L5.15 9.58L5.15 9.58Q5.11 9.42 5.11 9.44L5.11 9.44L5.11 9.44Q4.91 9.79 4.59 10.05L4.59 10.05L4.59 10.05Q4.31 10.29 3.87 10.47L3.87 10.47L3.87 10.47Q3.43 10.65 2.79 10.65L2.79 10.65L2.79 10.65Q2.34 10.65 1.90 10.52L1.90 10.52L1.90 10.52Q1.47 10.39 1.13 10.13L1.13 10.13L1.13 10.13Q0.78 9.87 0.57 9.48L0.57 9.48L0.57 9.48Q0.35 9.09 0.34 8.57L0.34 8.57L0.34 8.57Q0.31 8.02 0.48 7.59L0.48 7.59L0.48 7.59Q0.66 7.17 0.99 6.86L0.99 6.86L0.99 6.86Q1.32 6.55 1.78 6.36L1.78 6.36L1.78 6.36Q2.24 6.17 2.79 6.10L2.79 6.10L2.79 6.10Q3.30 6.03 3.92 6.03L3.92 6.03L3.92 6.03Q4.54 6.03 5.03 6.06L5.03 6.06L5.03 5.84L5.03 5.84Q5.03 5.24 4.76 4.93L4.76 4.93L4.76 4.93Q4.49 4.63 4.09 4.54L4.09 4.54L4.09 4.54Q3.70 4.45 3.22 4.52L3.22 4.52L3.22 4.52Q2.74 4.59 2.31 4.72L2.31 4.72L2.31 4.72Q1.88 4.86 1.55 5.00L1.55 5.00L1.55 5.00Q1.22 5.15 1.13 5.22L1.13 5.22L1.13 3.81L1.13 3.81Q1.15 3.79 1.39 3.69L1.39 3.69L1.39 3.69Q1.62 3.58 1.99 3.46L1.99 3.46L1.99 3.46Q2.35 3.33 2.81 3.23L2.81 3.23L2.81 3.23Q3.26 3.12 3.72 3.12ZM4.62 8.68L4.62 8.68L4.62 8.68Q4.86 8.37 4.94 7.99L4.94 7.99L4.94 7.99Q5.01 7.62 5.01 7.20L5.01 7.20L4.20 7.20L4.20 7.20Q3.88 7.20 3.51 7.24L3.51 7.24L3.51 7.24Q3.15 7.28 2.84 7.41L2.84 7.41L2.84 7.41Q2.53 7.53 2.32 7.78L2.32 7.78L2.32 7.78Q2.11 8.02 2.11 8.44L2.11 8.44L2.11 8.44Q2.11 8.90 2.46 9.11L2.46 9.11L2.46 9.11Q2.80 9.32 3.30 9.32L3.30 9.32L3.30 9.32Q3.74 9.32 4.07 9.15L4.07 9.15L4.07 9.15Q4.40 8.97 4.62 8.68ZM12.61 10.65L12.61 10.65L12.61 10.65Q12.07 10.65 11.66 10.49L11.66 10.49L11.66 10.49Q11.26 10.32 10.98 10.11L10.98 10.11L10.98 10.11Q10.65 9.87 10.42 9.56L10.42 9.56L10.42 12.22L8.54 12.22L8.54 3.29L10.00 3.29L10.36 4.24L10.36 4.24Q10.57 3.93 10.89 3.68L10.89 3.68L10.89 3.68Q11.17 3.47 11.59 3.30L11.59 3.30L11.59 3.30Q12.01 3.12 12.61 3.12L12.61 3.12L12.61 3.12Q13.44 3.12 14.01 3.42L14.01 3.42L14.01 3.42Q14.59 3.72 14.95 4.23L14.95 4.23L14.95 4.23Q15.30 4.73 15.46 5.41L15.46 5.41L15.46 5.41Q15.62 6.09 15.62 6.85L15.62 6.85L15.62 6.85Q15.62 7.60 15.46 8.29L15.46 8.29L15.46 8.29Q15.30 8.99 14.95 9.51L14.95 9.51L14.95 9.51Q14.59 10.04 14.01 10.35L14.01 10.35L14.01 10.35Q13.44 10.65 12.61 10.65ZM12.03 4.59L12.03 4.59L12.03 4.59Q11.35 4.59 10.88 5.14L10.88 5.14L10.88 5.14Q10.42 5.68 10.42 6.85L10.42 6.85L10.42 6.85Q10.42 7.99 10.88 8.60L10.88 8.60L10.88 8.60Q11.35 9.20 12.03 9.20L12.03 9.20L12.03 9.20Q12.36 9.20 12.66 9.04L12.66 9.04L12.66 9.04Q12.95 8.89 13.17 8.60L13.17 8.60L13.17 8.60Q13.38 8.30 13.52 7.86L13.52 7.86L13.52 7.86Q13.65 7.42 13.65 6.85L13.65 6.85L13.65 6.85Q13.65 6.27 13.52 5.84L13.52 5.84L13.52 5.84Q13.38 5.42 13.17 5.14L13.17 5.14L13.17 5.14Q12.95 4.86 12.66 4.72L12.66 4.72L12.66 4.72Q12.36 4.59 12.03 4.59ZM19.07 10.50L17.18 10.50L17.18 3.29L19.07 3.29L19.07 10.50ZM19.17 1.02L19.17 1.02L19.17 1.02Q19.17 1.47 18.86 1.78L18.86 1.78L18.86 1.78Q18.55 2.09 18.12 2.09L18.12 2.09L18.12 2.09Q17.67 2.09 17.36 1.78L17.36 1.78L17.36 1.78Q17.05 1.47 17.05 1.02L17.05 1.02L17.05 1.02Q17.05 0.59 17.36 0.29L17.36 0.29L17.36 0.29Q17.67-0.01 18.12-0.01L18.12-0.01L18.12-0.01Q18.55-0.01 18.86 0.29L18.86 0.29L18.86 0.29Q19.17 0.59 19.17 1.02ZM27.08 2.30L26.39 3.95L26.39 3.95Q25.86 3.54 25.29 3.32L25.29 3.32L25.29 3.32Q24.72 3.09 24.22 3.09L24.22 3.09L24.22 3.09Q23.67 3.09 23.41 3.24L23.41 3.24L23.41 3.24Q23.14 3.39 23.14 3.88L23.14 3.88L23.14 3.88Q23.14 4.13 23.25 4.31L23.25 4.31L23.25 4.31Q23.35 4.49 23.55 4.63L23.55 4.63L23.55 4.63Q23.74 4.77 24.02 4.88L24.02 4.88L24.02 4.88Q24.29 4.98 24.61 5.10L24.61 5.10L24.61 5.10Q25.09 5.25 25.58 5.45L25.58 5.45L25.58 5.45Q26.07 5.64 26.47 5.95L26.47 5.95L26.47 5.95Q26.87 6.26 27.12 6.73L27.12 6.73L27.12 6.73Q27.37 7.21 27.37 7.94L27.37 7.94L27.37 7.94Q27.37 8.65 27.10 9.16L27.10 9.16L27.10 9.16Q26.82 9.67 26.38 10.00L26.38 10.00L26.38 10.00Q25.93 10.33 25.35 10.49L25.35 10.49L25.35 10.49Q24.78 10.65 24.16 10.65L24.16 10.65L24.16 10.65Q23.27 10.65 22.39 10.30L22.39 10.30L22.39 10.30Q21.52 9.95 20.87 9.27L20.87 9.27L21.55 7.67L21.55 7.67Q22.12 8.27 22.84 8.61L22.84 8.61L22.84 8.61Q23.56 8.95 24.22 8.95L24.22 8.95L24.22 8.95Q24.81 8.95 25.12 8.78L25.12 8.78L25.12 8.78Q25.44 8.61 25.45 8.09L25.45 8.09L25.45 8.09Q25.45 7.80 25.34 7.59L25.34 7.59L25.34 7.59Q25.23 7.38 25.02 7.22L25.02 7.22L25.02 7.22Q24.81 7.07 24.53 6.96L24.53 6.96L24.53 6.96Q24.25 6.85 23.91 6.73L23.91 6.73L23.91 6.73Q23.44 6.58 22.96 6.39L22.96 6.39L22.96 6.39Q22.48 6.20 22.11 5.89L22.11 5.89L22.11 5.89Q21.73 5.59 21.50 5.13L21.50 5.13L21.50 5.13Q21.27 4.68 21.27 3.98L21.27 3.98L21.27 3.98Q21.27 3.28 21.52 2.78L21.52 2.78L21.52 2.78Q21.77 2.28 22.19 1.97L22.19 1.97L22.19 1.97Q22.61 1.65 23.16 1.50L23.16 1.50L23.16 1.50Q23.70 1.36 24.29 1.36L24.29 1.36L24.29 1.36Q25.05 1.36 25.77 1.61L25.77 1.61L25.77 1.61Q26.49 1.86 27.08 2.30L27.08 2.30ZM32.31 3.12L32.31 3.12L32.31 3.12Q32.75 3.12 33.08 3.18L33.08 3.18L33.08 3.18Q33.42 3.23 33.66 3.30L33.66 3.30L33.66 3.30Q33.92 3.39 34.15 3.49L34.15 3.49L34.15 4.82L34.15 4.82Q33.60 4.65 32.96 4.59L32.96 4.59L32.96 4.59Q32.33 4.54 31.78 4.74L31.78 4.74L31.78 4.74Q31.23 4.94 30.87 5.45L30.87 5.45L30.87 5.45Q30.51 5.95 30.51 6.89L30.51 6.89L30.51 6.89Q30.51 7.87 30.87 8.38L30.87 8.38L30.87 8.38Q31.23 8.89 31.78 9.06L31.78 9.06L31.78 9.06Q32.33 9.24 32.96 9.15L32.96 9.15L32.96 9.15Q33.60 9.06 34.15 8.85L34.15 8.85L34.15 10.23L34.15 10.23Q33.94 10.36 33.66 10.44L33.66 10.44L33.66 10.44Q33.42 10.53 33.07 10.59L33.07 10.59L33.07 10.59Q32.73 10.65 32.30 10.65L32.30 10.65L32.30 10.65Q31.75 10.65 31.09 10.51L31.09 10.51L31.09 10.51Q30.44 10.37 29.87 9.97L29.87 9.97L29.87 9.97Q29.30 9.56 28.92 8.83L28.92 8.83L28.92 8.83Q28.55 8.09 28.55 6.89L28.55 6.89L28.55 6.89Q28.55 5.70 28.92 4.96L28.92 4.96L28.92 4.96Q29.30 4.21 29.87 3.81L29.87 3.81L29.87 3.81Q30.44 3.40 31.09 3.26L31.09 3.26L31.09 3.26Q31.75 3.12 32.31 3.12ZM39.62 3.12L39.62 3.12L39.62 3.12Q40.26 3.12 40.73 3.34L40.73 3.34L40.73 3.34Q41.19 3.56 41.49 3.93L41.49 3.93L41.49 3.93Q41.79 4.31 41.93 4.83L41.93 4.83L41.93 4.83Q42.07 5.35 42.07 5.95L42.07 5.95L42.07 10.50L40.19 10.50L40.19 6.58L40.19 6.58Q40.19 5.54 39.91 5.05L39.91 5.05L39.91 5.05Q39.63 4.56 38.95 4.56L38.95 4.56L38.95 4.56Q38.12 4.56 37.72 5.25L37.72 5.25L37.72 5.25Q37.32 5.94 37.32 7.06L37.32 7.06L37.32 10.50L35.45 10.50L35.45 1.55L37.23 1.55L37.23 4.27L37.23 4.27Q37.37 4.12 37.53 3.91L37.53 3.91L37.53 3.91Q37.70 3.71 37.96 3.54L37.96 3.54L37.96 3.54Q38.22 3.36 38.62 3.24L38.62 3.24L38.62 3.24Q39.02 3.12 39.62 3.12Z"></path></g><!----><!----></svg>